# xmcd CD database file
#
# Track frame offsets:
#	150
#	17515
#	36640
#	62530
#	80517
#	101525
#	121712
#	136630
#	162062
#	185267
#	205095
#	219650
#	226762
#	245665
#	272190
#
# Disc length: 3719 seconds
#
# Revision: 4
# Processed by: cddbd v1.5.1PL2 Copyright (c) Steve Scherf et al.
# Submitted via: CDex 1.51
#
DISCID=c20e850f
DTITLE=山下達郎 - Best Pack II 1979-1982
DYEAR=1987
DGENRE=Pop
TTITLE0=MORNING GLORY
TTITLE1=SPARKLE
TTITLE2=FUTARI
TTITLE3=愛を描いて -Let's Kiss the Sun-
TTITLE4=夏への扉
TTITLE5=LOVELAND， ISLAND
TTITLE6=あまく危険な香り
TTITLE7=FUNKY FLUSHIN'
TTITLE8=RAINY WALK
TTITLE9=TOUCH ME LIGHTLY
TTITLE10=YOUR EYES
TTITLE11=おやすみ
TTITLE12=MY SUGAR BABE
TTITLE13=RIDE ON TIME
TTITLE14=夜の翼 -Nightwing-
EXTD=YEAR: 1987
EXTT0=
EXTT1=
EXTT2=
EXTT3=
EXTT4=
EXTT5=
EXTT6=
EXTT7=
EXTT8=
EXTT9=
EXTT10=
EXTT11=
EXTT12=
EXTT13=
EXTT14=
PLAYORDER=
